HIERARCHY
ROOT Hips
{
	OFFSET 0.000000 0.000000 0.000000
	CHANNELS 6 Xposition Yposition Zposition Zrotation Yrotation Xrotation 
	JOINT LHipJoint
	{
		OFFSET 0.000000 0.000000 0.000000
		CHANNELS 3 Zrotation Yrotation Xrotation
		JOINT LeftUpLeg
		{
			OFFSET 1.363060 -1.794630 0.839290
			CHANNELS 3 Zrotation Yrotation Xrotation
			JOINT LeftLeg
			{
				OFFSET 2.448110 -6.726130 0.000000
				CHANNELS 3 Zrotation Yrotation Xrotation
				JOINT LeftFoot
				{
					OFFSET 2.562200 -7.039590 0.000000
					CHANNELS 3 Zrotation Yrotation Xrotation
					JOINT LeftToeBase
					{
						OFFSET 0.157640 -0.433110 2.322550
						CHANNELS 3 Zrotation Yrotation Xrotation
						End Site
						{
							OFFSET 0.000000 0.000000 0.000000
						}
					}
				}
			}
		}
	}
	JOINT RHipJoint
	{
		OFFSET 0.000000 0.000000 0.000000
		CHANNELS 3 Zrotation Yrotation Xrotation
		JOINT RightUpLeg
		{
			OFFSET -1.305520 -1.794630 0.839290
			CHANNELS 3 Zrotation Yrotation Xrotation
			JOINT RightLeg
			{
				OFFSET -2.542530 -6.985550 0.000000
				CHANNELS 3 Zrotation Yrotation Xrotation
				JOINT RightFoot
				{
					OFFSET -2.568260 -7.056230 0.000000
					CHANNELS 3 Zrotation Yrotation Xrotation
					JOINT RightToeBase
					{
						OFFSET -0.164730 -0.452590 2.363150
						CHANNELS 3 Zrotation Yrotation Xrotation
						End Site
						{
							OFFSET 0.000000 0.000000 0.000000
						}
					}
				}
			}
		}
	}
	JOINT LowerBack
	{
		OFFSET 0.000000 0.000000 0.000000
		CHANNELS 3 Zrotation Yrotation Xrotation
		JOINT Spine
		{
			OFFSET 0.028270 2.035590 -0.193380
			CHANNELS 3 Zrotation Yrotation Xrotation
			JOINT Spine1
			{
				OFFSET 0.056720 2.048850 -0.042750
				CHANNELS 3 Zrotation Yrotation Xrotation
				JOINT Neck
				{
					OFFSET 0.000000 0.000000 0.000000
					CHANNELS 3 Zrotation Yrotation Xrotation
					JOINT Neck1
					{
						OFFSET -0.054170 1.746240 0.172020
						CHANNELS 3 Zrotation Yrotation Xrotation
						JOINT Head
						{
							OFFSET 0.104070 1.761360 -0.123970
							CHANNELS 3 Zrotation Yrotation Xrotation
							End Site
							{
								OFFSET 0.000000 0.000000 0.000000
							}
						}
					}
				}
				JOINT LeftShoulder
				{
					OFFSET 0.000000 0.000000 0.000000
					CHANNELS 3 Zrotation Yrotation Xrotation
					JOINT LeftArm
					{
						OFFSET 3.362410 1.200890 -0.311210
						CHANNELS 3 Zrotation Yrotation Xrotation
						JOINT LeftForeArm
						{
							OFFSET 4.983000 -0.000000 -0.000000
							CHANNELS 3 Zrotation Yrotation Xrotation
							JOINT LeftHand
							{
								OFFSET 3.483560 -0.000000 -0.000000
								CHANNELS 3 Zrotation Yrotation Xrotation
								JOINT LeftFingerBase
								{
									OFFSET 0.000000 0.000000 0.000000
									CHANNELS 3 Zrotation Yrotation Xrotation
									JOINT LeftHandIndex1
									{
										OFFSET 0.715260 -0.000000 -0.000000
										CHANNELS 3 Zrotation Yrotation Xrotation
										End Site
										{
											OFFSET 0.000000 0.000000 0.000000
										}
									}
								}
								JOINT LThumb
								{
									OFFSET 0.000000 0.000000 0.000000
									CHANNELS 3 Zrotation Yrotation Xrotation
									End Site
									{
										OFFSET 0.000000 0.000000 0.000000
									}
								}
							}
						}
					}
				}
				JOINT RightShoulder
				{
					OFFSET 0.000000 0.000000 0.000000
					CHANNELS 3 Zrotation Yrotation Xrotation
					JOINT RightArm
					{
						OFFSET -3.136600 1.374050 -0.404650
						CHANNELS 3 Zrotation Yrotation Xrotation
						JOINT RightForeArm
						{
							OFFSET -5.241900 -0.000000 -0.000000
							CHANNELS 3 Zrotation Yrotation Xrotation
							JOINT RightHand
							{
								OFFSET -3.444170 -0.000000 -0.000000
								CHANNELS 3 Zrotation Yrotation Xrotation
								JOINT RightFingerBase
								{
									OFFSET 0.000000 0.000000 0.000000
									CHANNELS 3 Zrotation Yrotation Xrotation
									JOINT RightHandIndex1
									{
										OFFSET -0.622530 -0.000000 -0.000000
										CHANNELS 3 Zrotation Yrotation Xrotation
										End Site
										{
											OFFSET 0.000000 0.000000 0.000000
										}
									}
								}
								JOINT RThumb
								{
									OFFSET 0.000000 0.000000 0.000000
									CHANNELS 3 Zrotation Yrotation Xrotation
									End Site
									{
										OFFSET 0.000000 0.000000 0.000000
									}
								}
							}
						}
					}
				}
			}
		}
	}
}
MOTION
Frames: 8
Frame Time: 0.016667
-0.119043 18.378817 -1.055039 -0.768890 2.914316 6.250401 -14.976692 -10.176392 -10.603602 -2.627372 -2.356342 -7.558079 19.481300 -0.315886 -2.211747 0.412634 17.342222 45.513133 0.000000 0.000000 0.000000 13.169328 -0.018278 1.893119 0.495521 -3.272265 0.424857 -8.747393 -15.982225 30.010406 2.506722 -17.981090 24.135720 0.000000 0.000000 0.000000 1.152058 9.241101 15.209063 3.838400 4.998762 18.137875 -10.757018 3.407790 -36.213110 -11.985206 4.205038 -29.042765 7.104120 0.447384 10.293857 0.000000 0.000000 0.000000 -1.241266 15.461377 19.673247 -61.850718 -20.908344 -41.983744 -157.949123 86.925180 178.725122 7.275119 3.462513 -0.645766 7.267725 3.528020 -0.000000 0.000000 0.000000 0.000000 0.000000 0.000000 0.000000 1.228599 -33.622185 6.379841 60.693544 -0.370513 6.835264 16.102567 52.852731 0.139542 -0.498890 4.188964 0.069746 -0.497795 4.189998 0.000000 0.000000 0.000000 0.000000 0.000000 0.000000 0.000000 
-0.058543 18.696187 -0.848603 -0.024058 0.399843 6.174277 -19.483680 -8.872994 -6.985902 3.565732 -2.774192 -13.726656 15.678296 2.653724 3.132191 0.780522 18.475435 45.326557 0.000000 0.000000 0.000000 16.322423 -0.056354 5.177312 -3.829010 -1.647349 -4.347561 -10.878914 -15.998392 31.140315 0.881828 -21.681291 36.490545 0.000000 0.000000 0.000000 2.809401 8.694744 6.616543 -1.525486 4.196324 46.636711 -8.116503 -1.134252 -54.134407 -18.163496 5.099839 -32.780058 12.849799 0.791281 12.994989 0.000000 0.000000 0.000000 0.316089 13.728495 7.360233 -64.940796 -10.475497 -27.042847 -38.757749 66.422583 -0.432601 -3.614633 -3.005367 -0.216529 -3.619883 -3.003005 0.000000 0.000000 0.000000 0.000000 0.000000 0.000000 0.000000 6.548370 -33.143385 2.888975 60.203143 2.523235 7.536293 18.825012 48.677317 0.203005 0.489117 2.428892 0.101636 0.494985 2.430682 0.000000 0.000000 0.000000 0.000000 0.000000 0.000000 0.000000 
0.004117 19.015375 -0.642584 1.352922 -2.750967 6.357787 -22.842554 -7.740384 -5.214092 7.676729 -2.266342 -17.812287 12.690992 5.748280 6.872251 1.651085 20.665920 47.219762 0.000000 0.000000 0.000000 17.702159 0.114393 7.286921 -7.040122 -0.559812 -7.591530 -12.937687 -15.952204 30.856132 -1.482727 -24.468349 47.116198 0.000000 0.000000 0.000000 5.852632 7.750496 1.807319 -14.642516 10.460901 66.277363 -1.522157 -0.145887 -64.678670 -20.243009 5.594629 -35.977308 14.604296 1.062449 13.399752 0.000000 0.000000 0.000000 2.123954 11.402977 3.028464 -67.251375 -11.498771 -15.747777 -35.507959 50.012277 -0.338457 -2.397411 -5.563472 -0.169334 -2.391889 -5.567287 -0.000000 0.000000 0.000000 0.000000 0.000000 0.000000 0.000000 13.435300 -34.065977 -1.487421 64.421792 6.484285 5.134785 12.790003 45.068501 0.279587 1.528387 0.784301 0.140004 1.537017 0.786586 0.000000 0.000000 0.000000 0.000000 0.000000 0.000000 0.000000 
-0.007763 19.184398 -0.317095 1.206441 -1.959216 6.562009 -23.667526 -6.230009 -3.522332 7.858958 -2.850966 -19.143828 13.018969 5.291244 6.464739 1.673333 20.737419 48.139980 0.000000 0.000000 0.000000 19.075089 -1.644936 9.611024 -8.651553 -0.016690 -10.549922 -12.784040 -16.643771 30.711385 -3.078070 -26.541211 51.976622 0.000000 0.000000 0.000000 5.055421 8.452164 -2.091779 -11.548326 10.450583 76.188830 -4.554079 -1.274602 -67.249313 -27.585348 8.735788 -33.631574 19.105761 2.602492 9.154148 0.000000 0.000000 0.000000 4.009444 10.242165 1.316368 -69.700756 -16.433738 -21.450437 -40.684236 57.653694 -0.332726 -3.571535 -5.769134 -0.166526 -3.563690 -5.775726 -0.000000 0.000000 0.000000 0.000000 0.000000 0.000000 0.000000 15.924681 -37.792537 -5.239000 64.299974 7.820719 5.161878 14.261963 42.536032 0.267911 1.503571 0.981083 0.134143 1.511540 0.983281 -0.000000 0.000000 0.000000 0.000000 0.000000 0.000000 0.000000 
-0.019079 19.353438 0.007684 1.255836 -0.955221 6.638232 -23.793178 -4.672826 -2.532242 6.964688 -3.384330 -20.100424 13.360106 4.894324 6.610159 1.668631 20.799708 49.090896 0.000000 0.000000 0.000000 19.984892 -3.293892 11.615479 -9.902094 0.340490 -12.832525 -12.447848 -17.286562 30.370098 -4.738225 -28.012234 55.853271 0.000000 0.000000 0.000000 4.176417 9.293070 -5.152873 -8.911348 10.360295 84.667764 -6.566187 -2.166083 -68.746753 -33.787528 12.054490 -31.124173 22.059392 4.390111 4.290588 0.000000 0.000000 0.000000 4.771558 9.541932 0.345086 -72.092049 -21.869877 -26.735554 -48.996597 63.843667 -0.007224 -4.056599 -6.150111 -0.003678 -4.045489 -6.163763 -0.000000 0.000000 0.000000 0.000000 0.000000 0.000000 0.000000 19.156759 -41.213178 -9.535775 63.602083 9.477232 5.203448 15.540192 40.106531 0.255328 1.482436 1.204245 0.127827 1.489713 1.206388 0.000000 0.000000 0.000000 0.000000 0.000000 0.000000 0.000000 
-0.115063 19.546616 0.211940 1.142893 2.211473 6.829507 -23.377358 -4.308822 -2.495373 6.499269 -3.787453 -20.095445 12.215229 4.523488 6.423675 1.990620 21.291962 51.199286 0.000000 0.000000 0.000000 21.603985 -3.804813 12.373312 -10.939706 -0.370263 -14.057714 -11.771499 -19.042703 30.649824 -6.241977 -29.819260 58.803051 0.000000 0.000000 0.000000 1.732856 10.653094 -6.287573 -4.458735 8.504839 91.748232 -6.988614 -3.402557 -71.543329 -37.750635 14.067774 -31.355450 22.789277 5.444078 1.784202 0.000000 0.000000 0.000000 4.952406 9.417421 1.267381 -76.105079 -27.351185 -30.914930 -52.891065 69.851807 0.949389 -1.461065 -7.818420 0.475159 -1.467812 -7.854247 -0.000000 0.000000 0.000000 0.000000 0.000000 0.000000 0.000000 21.460606 -44.416000 -13.384540 63.886275 10.854359 4.400539 15.304557 37.168228 0.236443 1.490033 1.172307 0.118358 1.496424 1.174273 -0.000000 0.000000 0.000000 0.000000 0.000000 0.000000 0.000000 
-0.210612 19.740249 0.412745 1.085300 5.955934 7.043005 -23.104328 -4.254134 -2.585708 6.068181 -4.140664 -19.886836 11.149279 4.111397 6.211931 2.215451 21.722345 53.253975 0.000000 0.000000 0.000000 23.015710 -4.325427 12.947905 -11.614350 -1.141179 -15.049451 -10.878088 -20.761084 30.832008 -7.585938 -31.062879 61.074796 0.000000 0.000000 0.000000 -0.284690 12.827002 -7.614757 -0.064815 6.406558 99.170638 -4.843695 -4.427903 -74.347806 -41.381632 15.934891 -31.174762 23.664836 6.542749 -1.494595 0.000000 0.000000 0.000000 7.103285 6.713284 0.260967 -82.465972 -25.879602 -4.143243 -75.878979 42.884658 3.531856 16.519983 -22.362881 1.724496 16.650094 -22.186452 -0.000000 0.000000 0.000000 0.000000 0.000000 0.000000 0.000000 22.816911 -46.005232 -16.736764 64.254038 12.376475 3.582248 14.641570 34.533789 0.214840 1.481091 1.168129 0.107530 1.486557 1.169946 -0.000000 0.000000 0.000000 0.000000 0.000000 0.000000 0.000000 
-0.301308 19.825601 0.576415 -0.006474 7.751277 6.812028 -22.305195 -3.110835 -1.213573 6.364780 -4.387732 -19.678903 10.367062 2.962124 3.358135 2.447707 21.834883 54.450151 0.000000 0.000000 0.000000 25.032809 -4.184279 13.425651 -11.985577 -1.761730 -15.225589 -10.634212 -21.791461 30.904058 -8.019544 -31.784144 62.015231 0.000000 0.000000 0.000000 -4.274791 11.246276 -10.263561 7.838648 -0.743398 100.129273 -5.510808 -8.118106 -76.491167 -41.531431 17.134397 -30.149087 25.133676 7.278767 -2.553318 0.000000 0.000000 0.000000 8.281899 -1.300517 -9.734722 -80.781445 -1.995530 62.600230 -71.261396 -45.562867 7.307637 21.854406 -33.191920 3.553338 21.958103 -32.859412 0.000000 0.000000 0.000000 0.000000 0.000000 0.000000 0.000000 18.476111 -42.383188 -12.851037 65.040202 11.952771 2.874029 14.959665 31.973466 0.184068 1.264822 1.022620 0.092122 1.269361 1.024076 -0.000000 0.000000 0.000000 0.000000 0.000000 0.000000 0.000000 
